<svg viewBox="0 0 100 28" xmlns="http://www.w3.org/2000/svg" fill-rule="evenodd" clip-rule="evenodd"><g fill="#444"><path d="M41.1 0c-3.2 0-6.1 1.6-7.9 4v-4h-2v28.7h2v-12.9c1.8 2.4 4.7 4 7.9 4 5.5 0 9.9-4.4 9.9-9.9s-4.5-9.9-9.9-9.9zm0 17.8c-4.4 0-7.9-3.6-7.9-7.9 0-4.3 3.5-7.9 7.9-7.9s7.9 3.5 7.9 7.9-3.5 7.9-7.9 7.9z"/><path d="M69.1 2c2.8 0 5.4 1.5 6.9 4l1.7-1c-1.8-3.1-5.1-5-8.6-5-5.5 0-9.9 4.4-9.9 9.9s4.4 9.9 9.9 9.9c3.5 0 6.8-1.9 8.6-5l-1.7-1c-1.4 2.4-4 4-6.9 4-4.4 0-7.9-3.6-7.9-7.9 0-4.3 3.5-7.9 7.9-7.9z"/><path d="M54.2 0h2v19.8h-2z"/><path d="M98 0v9.9c0 4.4-3.6 7.9-7.9 7.9-4.4 0-7.9-3.6-7.9-7.9v-9.9h-2v9.9c0 5.5 4.4 9.9 9.9 9.9 3.2 0 6.1-1.6 7.9-4v4h2v-19.8h-2z"/><path d="M17 4.3l-7.1 8.8-3.5-3.5-1.4 1.4 5.1 5.1 8.4-10.6-1.5-1.2z"/><path d="M17.8 2h4.5v4.4h2v-6.4h-6.5v2z"/><path d="M22.3 17.8h-4.5v2h6.5v-6.4h-2v4.4z"/><path d="M2 13.4h-2v6.4h6.4v-2h-4.4v-4.4z"/><path d="M2 2h4.4v-2h-6.4v6.4h2v-4.4z"/></g></svg>