<svg xmlns="http://www.w3.org/2000/svg" width="100" height="41.714" viewBox="31.2 35.65 100 41.714" enable-background="new 31.2 35.65 100 41.714"><path fill="#E4E4E3" d="M45.59 35.65c-4.652 0-8.867 2.326-11.482 5.814v-5.814h-2.908v41.714h2.907v-18.749c2.616 3.488 6.831 5.814 11.482 5.814 7.994 0 14.39-6.396 14.39-14.39 0-7.994-6.541-14.389-14.389-14.389zm0 25.872c-6.396 0-11.482-5.232-11.482-11.483 0-6.25 5.087-11.483 11.482-11.483s11.482 5.087 11.482 11.483c0 6.397-5.088 11.483-11.482 11.483z"/><path fill="#E4E4E3" d="M86.287 38.557c4.07 0 7.849 2.181 10.029 5.814l2.471-1.454c-2.615-4.506-7.413-7.268-12.5-7.268-7.994 0-14.389 6.395-14.389 14.39 0 7.994 6.395 14.39 14.389 14.39 5.087 0 9.885-2.763 12.5-7.268l-2.471-1.453c-2.035 3.487-5.814 5.813-10.029 5.813-6.395 0-11.482-5.232-11.482-11.483 0-6.248 5.088-11.481 11.482-11.481z"/><path fill="#E4E4E3" d="M64.631 35.65h2.906v28.78h-2.906v-28.78z"/><path fill="#E4E4E3" d="M128.293 35.65v14.39c0 6.396-5.231 11.483-11.483 11.483-6.394 0-11.481-5.232-11.481-11.483v-14.39h-2.907v14.39c0 7.994 6.395 14.39 14.389 14.39 4.652 0 8.867-2.326 11.483-5.814v5.814h2.907v-28.78h-2.908z"/></svg>