<svg class="hidden" style="display: none;"><symbol viewBox="0 0 100 100" id="help"><title>help</title><path d="M50 0c27.573 0 50 22.43 50 50 0 27.575-22.427 50-50 50-27.562 0-50-22.425-50-50 0-27.57 22.438-50 50-50m3.891 77.942c1.198-1.192 1.807-2.648 1.807-4.332 0-1.683-.606-3.139-1.8-4.327-1.192-1.198-2.648-1.805-4.332-1.805-1.683 0-3.14.606-4.331 1.803-1.192 1.198-1.799 2.655-1.799 4.329 0 1.675.606 3.132 1.799 4.327 1.191 1.196 2.65 1.801 4.331 1.801s3.139-.604 4.325-1.796zm-.886-14.17c1.064-.868 1.604-2.19 1.604-3.928 0-.991.285-1.943.864-2.905 1.142-1.851 3.081-3.805 5.755-5.798 5.259-3.861 7.924-8.43 7.924-13.575 0-4.902-1.805-8.902-5.352-11.876-3.372-2.873-7.966-4.329-13.653-4.329-5.334 0-10.203 1.332-14.454 3.949-2.214 1.326-2.68 3.127-2.68 4.4 0 1.165.461 2.243 1.336 3.121.871.877 1.938 1.339 3.085 1.339 1.035 0 2.021-.286 2.968-.873 2.331-1.536 5.401-2.317 9.126-2.317 8.619 0 9.616 3.979 9.616 6.972 0 .988-.315 1.91-.966 2.825-.501.709-1.884 2.182-5.601 5.162-5.188 4.017-7.819 8.892-7.819 14.488 0 1.246.506 2.371 1.459 3.244.932.856 2.07 1.293 3.389 1.293 1.284.001 2.427-.402 3.399-1.192z"/></symbol><symbol viewBox="0 0 26 16" id="icon_arrow_down"><title>icon_arrow_down</title><path d="M.848 2.804c0-.208.08-.392.24-.552l1.2-1.2c.16-.16.344-.24.552-.24.208 0 .392.08.552.24l9.43 9.43 9.43-9.43c.16-.16.344-.24.552-.24.208 0 .392.08.552.24l1.2 1.2c.16.16.24.344.24.552 0 .208-.08.392-.24.552l-11.182 11.182c-.16.16-.344.24-.552.24-.208 0-.392-.08-.552-.24l-11.182-11.182c-.16-.16-.24-.344-.24-.552z"/></symbol><symbol viewBox="0 0 16 26" id="icon_arrow_left"><title>icon_arrow_left</title><path d="M.08 12.179c0-.208.08-.392.24-.552l11.182-11.182c.16-.16.344-.24.552-.24.208 0 .392.08.552.24l1.2 1.2c.16.16.24.344.24.552 0 .208-.08.392-.24.552l-9.43 9.43 9.43 9.43c.16.16.24.344.24.552 0 .208-.08.392-.24.552l-1.2 1.2c-.16.16-.344.24-.552.24-.208 0-.392-.08-.552-.24l-11.182-11.182c-.16-.16-.24-.344-.24-.552z"/></symbol><symbol viewBox="0 0 16 26" id="icon_arrow_right"><title>icon_arrow_right</title><path d="M.312 22.161c0-.208.08-.392.24-.552l9.43-9.43-9.43-9.43c-.16-.16-.24-.344-.24-.552 0-.208.08-.392.24-.552l1.2-1.2c.16-.16.344-.24.552-.24.208 0 .392.08.552.24l11.182 11.182c.16.16.24.344.24.552 0 .208-.08.392-.24.552l-11.182 11.182c-.16.16-.344.24-.552.24-.208 0-.392-.08-.552-.24l-1.2-1.2c-.16-.16-.24-.344-.24-.552z"/></symbol><symbol viewBox="0 0 26 16" id="icon_arrow_up"><title>icon_arrow_up</title><path d="M1.088 12.002l11.182-11.182c.16-.16.344-.24.552-.24.208 0 .392.08.552.24l11.182 11.182c.16.16.24.344.24.552 0 .208-.08.392-.24.552l-1.2 1.2c-.16.16-.344.24-.552.24-.208 0-.392-.08-.552-.24l-9.43-9.43-9.43 9.43c-.16.16-.344.24-.552.24-.208 0-.392-.08-.552-.24l-1.2-1.2c-.16-.16-.24-.344-.24-.552 0-.208.08-.392.24-.552z"/></symbol><symbol viewBox="0 0 32 24" id="icon_check"><title>icon_check</title><path d="M1.096 12.13l1.505-1.505c.201-.201.431-.301.692-.301.261 0 .492.1.692.301l6.812 6.812 16.847-16.847c.201-.201.431-.301.692-.301.261 0 .492.1.692.301l1.505 1.505c.201.201.301.431.301.692 0 .261-.1.492-.301.692l-19.044 19.044c-.201.201-.431.301-.692.301-.261 0-.492-.1-.692-.301l-9.009-9.009c-.201-.201-.301-.431-.301-.692 0-.261.1-.492.301-.692z"/></symbol><symbol viewBox="0 0 26 26" id="icon_close"><title>icon_close</title><path d="M12.108 10.188l-9.439-9.439c-.16-.16-.344-.24-.552-.24-.208 0-.392.08-.552.24l-1.2 1.2c-.16.16-.24.344-.24.552 0 .208.08.392.24.552l9.43 9.43-9.43 9.43c-.16.16-.24.344-.24.552 0 .208.08.392.24.552l1.2 1.2c.16.16.344.24.552.24.208 0 .392-.08.552-.24l9.439-9.439 9.439 9.439c.16.16.344.24.552.24.208 0 .392-.08.552-.24l1.2-1.2c.16-.16.24-.344.24-.552 0-.208-.08-.392-.24-.552l-9.43-9.43 9.43-9.43c.16-.16.24-.344.24-.552 0-.208-.08-.392-.24-.552l-1.2-1.2c-.16-.16-.344-.24-.552-.24-.208 0-.392.08-.552.24l-9.439 9.439z"/></symbol><symbol viewBox="0 0 101 92" id="icon_comment"><title>icon_comment</title><path d="M50.15 4.255v-4.047c-13.65 0-26.076 4.836-35.158 12.789-9.079 7.911-14.846 19.081-14.842 31.465-.004 9.024 3.076 17.422 8.254 24.362l3.243-2.428-3.909-1.032-6.955 25.941 28.43-7.608-1.048-3.926-1.744 3.663c7.078 3.379 15.164 5.281 23.729 5.281 13.65 0 26.074-4.836 35.16-12.768 9.077-7.932 14.846-19.102 14.84-31.485.006-12.384-5.763-23.554-14.84-31.465-9.086-7.953-21.51-12.789-35.16-12.789v8.094c11.73 0 22.28 4.169 29.83 10.785 7.554 6.617 12.072 15.561 12.076 25.375-.004 9.834-4.522 18.757-12.076 25.394-7.548 6.597-18.1 10.765-29.83 10.765-7.363 0-14.257-1.639-20.241-4.492l-1.347-.648-16.33 4.371 3.833-14.286-1.172-1.578c-4.233-5.686-6.645-12.343-6.649-19.526.006-9.814 4.524-18.758 12.078-25.375 7.548-6.616 18.098-10.785 29.828-10.785v-4.047z"/></symbol><symbol viewBox="0 0 21 21" id="icon_plus"><title>icon_close</title><path d="M9.487 9.487v-8.268c0-.14.046-.256.137-.347.091-.091.207-.137.347-.137h1.051c.14 0 .256.046.347.137.091.091.137.207.137.347v8.26h8.26c.14 0 .256.046.347.137.091.091.137.207.137.347v1.051c0 .14-.046.256-.137.347-.091.091-.207.137-.347.137h-8.268v8.268c0 .14-.046.256-.137.347-.091.091-.207.137-.347.137h-1.051c-.14 0-.256-.046-.347-.137-.091-.091-.137-.207-.137-.347v-8.26h-8.26c-.14 0-.256-.046-.347-.137-.091-.091-.137-.207-.137-.347v-1.051c0-.14.046-.256.137-.347.091-.091.207-.137.347-.137h8.268z" fill-rule="nonzero"/></symbol><symbol viewBox="0 0 101 91" id="icon-comment-empty"><title>icon-comment-empty</title><path d="M13.152.44c-6.893 0-12.475 5.551-12.475 12.4v49.639c.02 6.826 5.606 12.341 12.475 12.326h36.583l11.526 14.117c.174.215.37.407.583.579 1.786 1.451 4.41 1.193 5.865-.579l11.492-14.117h9.127c6.845-.028 12.376-5.563 12.349-12.361v-49.643c0-6.826-5.563-12.361-12.428-12.361h-75.097zm-4.174 62.004v-49.604c.126-2.198 1.955-3.915 4.174-3.911h75.097c2.172 0 3.934 1.752 3.934 3.911v49.796c0 2.159-1.762 3.911-3.934 3.911h-11.015c-1.251.008-2.435.567-3.222 1.526l-9.525 11.539-9.555-11.735c-.799-.958-1.983-1.518-3.23-1.521h-38.558c-2.215 0-4.04-1.722-4.166-3.912z"/></symbol><symbol viewBox="0 0 101 93" id="icon-comment-multiple"><title>icon-comment-multiple</title><path d="M10.341 58.07c1.544.163 2.73 1.482 2.73 3.037s-1.186 2.874-2.73 3.037c-5.515 0-10.054-4.544-10.054-10.066v-43.017c0-5.522 4.539-10.066 10.054-10.066h64.544c5.516 0 10.054 4.544 10.054 10.066-.163 1.546-1.48 2.734-3.033 2.734s-2.87-1.188-3.033-2.734c0-2.252-1.84-4.109-4.088-4.127h-64.444c-2.261 0-4.122 1.863-4.122 4.127v42.882c0 2.264 1.861 4.127 4.122 4.127zM56.923 79.579h-31.233c-5.828 0-10.624-4.802-10.624-10.637v-42.58c.037-5.81 4.821-10.57 10.624-10.57h63.974c5.803 0 10.587 4.76 10.623 10.57v42.58c0 5.835-4.795 10.637-10.623 10.637h-7.674l-9.819 12.113c-.674.824-1.684 1.303-2.748 1.303-1.064 0-2.074-.479-2.748-1.303l-9.752-12.113zm20.677-5.772c.673-.826 1.683-1.307 2.748-1.308h9.383c1.931 0 3.519-1.591 3.519-3.523v-42.614c-.107-1.887-1.698-3.377-3.586-3.356h-63.974c-1.863.015-3.414 1.494-3.519 3.356v42.58c-.02 1.884 1.472 3.467 3.351 3.557h32.875c1.065.001 2.075.482 2.748 1.308l8.11 10.067 8.345-10.067zM36.581 41.864c-1.838 0-3.351-1.515-3.351-3.356 0-1.84 1.513-3.355 3.351-3.355h42.493c1.839 0 3.352 1.515 3.352 3.355 0 1.841-1.513 3.356-3.352 3.356h-42.493zM36.447 59.916c-1.838 0-3.351-1.515-3.351-3.355 0-1.841 1.513-3.356 3.351-3.356h31.602c1.838 0 3.351 1.515 3.351 3.356 0 1.84-1.513 3.355-3.351 3.355h-31.602z"/></symbol><symbol viewBox="0 0 98 88" id="icon-comment-single"><title>icon-comment-single</title><path d="M47.735 72.602h-35.562000000000005c-6.621 0-12.07-5.403-12.07-11.97v-48.03c0-6.587 5.466-12.008 12.109-12.008h72.918c6.621 0 12.07 5.404 12.07 11.97v48.105999999999995c0 6.546-5.431 11.932-12.032 11.932h-8.824l-11.153 13.674c-.769.931-1.919 1.471-3.132 1.471s-2.364-.54-3.132-1.471l-11.192-13.674zm23.567-6.515c.771-.929 1.92-1.471 3.133-1.478h10.695c2.095 0 3.819-1.709 3.819-3.787v-48.22c0-2.078-1.724-3.788-3.819-3.788h-72.918c-2.138-.003-3.928 1.672-4.049 3.788v48.03c.121 2.116 1.911 3.791 4.049 3.788h37.433c1.212.007 2.361.549 3.132 1.477l9.282 11.364 9.243-11.174zM24.587 30.026c-2.095 0-3.819-1.71-3.819-3.788s1.724-3.788 3.819-3.788h48.434c2.096 0 3.82 1.71 3.82 3.788s-1.724 3.788-3.82 3.788h-48.434zM24.473 50.329c-2.096 0-3.82-1.71-3.82-3.788s1.724-3.788 3.82-3.788h36.058c2.095 0 3.82 1.71 3.82 3.788s-1.725 3.788-3.82 3.788h-36.058z"/></symbol><symbol viewBox="0 0 89 100" id="icon-download"><title>icon-download</title><path d="M87.282 54.126l-4.396-4.395c-.586-.586-1.26-.879-2.022-.879-.761 0-1.435.293-2.021.879l-28.571 28.57v-75.378c0-1.612-1.304-2.919-2.916-2.919h-6.087c-1.623 0-2.938 1.315-2.938 2.937v75.364l-28.57-28.574c-.586-.586-1.26-.879-2.022-.879-.762 0-1.436.293-2.022.879l-4.395 4.395c-.587.586-.88 1.26-.88 2.022 0 .762.293 1.432.88 2.022l40.958 40.955c.586.586 1.26.879 2.022.879.762 0 1.435-.293 2.022-.879l40.958-40.955c.586-.59.879-1.26.879-2.022 0-.762-.293-1.436-.879-2.022"/></symbol><symbol viewBox="113 79.7 100 66.7" id="icon-fullscreen"><title>icon-fullscreen</title><path d="M197.7 94.9v36.1h-69.4v-36.1h69.4m7-6.9h-83.3v50h83.3v-50zM117.6 125.5h-4.6v20.8h20.8v-4.6h-16.2zM113 79.7v20.8h4.6v-16.2h16.2v-4.6zM208.4 100.5h4.6v-20.8h-20.8v4.6h16.2zM208.4 125.5v16.2h-16.2v4.6h20.8v-20.8z"/></symbol></svg>