<svg viewBox="0 0 101 92" xmlns="http://www.w3.org/2000/svg" fill-rule="evenodd" clip-rule="evenodd"><path d="M50.15 4.255v-4.047c-13.65 0-26.076 4.836-35.158 12.789-9.079 7.911-14.846 19.081-14.842 31.465-.004 9.024 3.076 17.422 8.254 24.362l3.243-2.428-3.909-1.032-6.955 25.941 28.43-7.608-1.048-3.926-1.744 3.663c7.078 3.379 15.164 5.281 23.729 5.281 13.65 0 26.074-4.836 35.16-12.768 9.077-7.932 14.846-19.102 14.84-31.485.006-12.384-5.763-23.554-14.84-31.465-9.086-7.953-21.51-12.789-35.16-12.789v8.094c11.73 0 22.28 4.169 29.83 10.785 7.554 6.617 12.072 15.561 12.076 25.375-.004 9.834-4.522 18.757-12.076 25.394-7.548 6.597-18.1 10.765-29.83 10.765-7.363 0-14.257-1.639-20.241-4.492l-1.347-.648-16.33 4.371 3.833-14.286-1.172-1.578c-4.233-5.686-6.645-12.343-6.649-19.526.006-9.814 4.524-18.758 12.078-25.375 7.548-6.616 18.098-10.785 29.828-10.785v-4.047z" fill="#999"/></svg>