<svg xmlns="http://www.w3.org/2000/svg" width="32" height="24" viewBox="0 0 32 24"><path d="M1.096 12.13l1.505-1.505c.201-.201.431-.301.692-.301.261 0 .492.1.692.301l6.812 6.812 16.847-16.847c.201-.201.431-.301.692-.301.261 0 .492.1.692.301l1.505 1.505c.201.201.301.431.301.692 0 .261-.1.492-.301.692l-19.044 19.044c-.201.201-.431.301-.692.301-.261 0-.492-.1-.692-.301l-9.009-9.009c-.201-.201-.301-.431-.301-.692 0-.261.1-.492.301-.692z" fill="#fff" stroke-width="1px" stroke="rgba(0,0,0,.4)"/></svg>