<svg xmlns="http://www.w3.org/2000/svg" viewBox="0 0 26 26"><title>icon_close</title><path d="M12.108 10.188l-9.439-9.439c-.16-.16-.344-.24-.552-.24-.208 0-.392.08-.552.24l-1.2 1.2c-.16.16-.24.344-.24.552 0 .208.08.392.24.552l9.43 9.43-9.43 9.43c-.16.16-.24.344-.24.552 0 .208.08.392.24.552l1.2 1.2c.16.16.344.24.552.24.208 0 .392-.08.552-.24l9.439-9.439 9.439 9.439c.16.16.344.24.552.24.208 0 .392-.08.552-.24l1.2-1.2c.16-.16.24-.344.24-.552 0-.208-.08-.392-.24-.552l-9.43-9.43 9.43-9.43c.16-.16.24-.344.24-.552 0-.208-.08-.392-.24-.552l-1.2-1.2c-.16-.16-.344-.24-.552-.24-.208 0-.392.08-.552.24l-9.439 9.439z" fill="#fff"/></svg>